<mxfile host="app.diagrams.net" modified="2022-09-24T14:37:15.665Z" agent="5.0 (Macintosh; Intel Mac OS X 10_14_6) AppleWebKit/537.36 (KHTML, like Gecko) Chrome/105.0.0.0 Safari/537.36" etag="9aVVfFdYtr6Lx0ccVk_G" version="20.3.1" type="github">
  <diagram id="vWunLkll0vEfycyqbZoe" name="第 1 页">
    <mxGraphModel dx="901" dy="648" grid="0" gridSize="10" guides="1" tooltips="1" connect="1" arrows="1" fold="1" page="0" pageScale="1" pageWidth="827" pageHeight="1169" background="none" math="0" shadow="0">
      <root>
        <mxCell id="0" />
        <mxCell id="1" parent="0" />
        <mxCell id="j28CpaSOzryhGSdTsk2z-42" value="" style="rounded=1;whiteSpace=wrap;html=1;strokeColor=#333333;fontColor=#5C5C5C;fillColor=none;dashed=1;" vertex="1" parent="1">
          <mxGeometry x="290" y="1103" width="430" height="123" as="geometry" />
        </mxCell>
        <mxCell id="j28CpaSOzryhGSdTsk2z-3" style="edgeStyle=orthogonalEdgeStyle;rounded=0;orthogonalLoop=1;jettySize=auto;html=1;entryX=0;entryY=0.5;entryDx=0;entryDy=0;strokeColor=#333333;fontColor=#5C5C5C;fillColor=#21C0A5;" edge="1" parent="1" source="j28CpaSOzryhGSdTsk2z-1" target="j28CpaSOzryhGSdTsk2z-2">
          <mxGeometry relative="1" as="geometry" />
        </mxCell>
        <mxCell id="j28CpaSOzryhGSdTsk2z-1" value="refresh()" style="rounded=1;whiteSpace=wrap;html=1;strokeWidth=1;fillWeight=4;hachureGap=8;hachureAngle=45;fillColor=#ffe6cc;sketch=1;strokeColor=#d79b00;" vertex="1" parent="1">
          <mxGeometry x="320" y="326" width="95" height="40" as="geometry" />
        </mxCell>
        <mxCell id="j28CpaSOzryhGSdTsk2z-35" style="edgeStyle=orthogonalEdgeStyle;rounded=0;orthogonalLoop=1;jettySize=auto;html=1;entryX=0.5;entryY=0;entryDx=0;entryDy=0;strokeColor=#333333;fontSize=10;fontColor=#5C5C5C;fillColor=#21C0A5;" edge="1" parent="1" source="j28CpaSOzryhGSdTsk2z-2" target="j28CpaSOzryhGSdTsk2z-5">
          <mxGeometry relative="1" as="geometry">
            <mxPoint x="582" y="328" as="targetPoint" />
          </mxGeometry>
        </mxCell>
        <mxCell id="j28CpaSOzryhGSdTsk2z-2" value="createBean()" style="rounded=1;whiteSpace=wrap;html=1;strokeWidth=1;fillWeight=4;hachureGap=8;hachureAngle=45;fillColor=#ffe6cc;sketch=1;strokeColor=#d79b00;" vertex="1" parent="1">
          <mxGeometry x="461.5" y="326" width="103" height="40" as="geometry" />
        </mxCell>
        <mxCell id="j28CpaSOzryhGSdTsk2z-5" value="" style="rounded=1;whiteSpace=wrap;html=1;strokeColor=#333333;fontColor=#5C5C5C;fillColor=none;dashed=1;" vertex="1" parent="1">
          <mxGeometry x="296" y="398" width="434" height="180" as="geometry" />
        </mxCell>
        <mxCell id="j28CpaSOzryhGSdTsk2z-6" value="&lt;span style=&quot;font-family: Helvetica; font-style: normal; font-variant-ligatures: normal; font-variant-caps: normal; letter-spacing: normal; orphans: 2; text-align: center; text-indent: 0px; text-transform: none; widows: 2; word-spacing: 0px; -webkit-text-stroke-width: 0px; background-color: rgb(248, 249, 250); text-decoration-thickness: initial; text-decoration-style: initial; text-decoration-color: initial; float: none; display: inline !important;&quot;&gt;&lt;font color=&quot;#ff0000&quot; style=&quot;font-size: 14px;&quot;&gt;&lt;b&gt;Part1：前置处理&lt;/b&gt;&lt;/font&gt;&lt;/span&gt;" style="text;whiteSpace=wrap;html=1;fontColor=#5C5C5C;" vertex="1" parent="1">
          <mxGeometry x="475" y="403" width="110" height="30" as="geometry" />
        </mxCell>
        <mxCell id="j28CpaSOzryhGSdTsk2z-7" value="" style="rounded=1;whiteSpace=wrap;html=1;strokeColor=#333333;fontColor=#5C5C5C;fillColor=none;dashed=1;" vertex="1" parent="1">
          <mxGeometry x="300" y="598" width="432" height="339" as="geometry" />
        </mxCell>
        <mxCell id="j28CpaSOzryhGSdTsk2z-8" value="&lt;span style=&quot;font-family: Helvetica; font-style: normal; font-variant-ligatures: normal; font-variant-caps: normal; letter-spacing: normal; orphans: 2; text-align: center; text-indent: 0px; text-transform: none; widows: 2; word-spacing: 0px; -webkit-text-stroke-width: 0px; background-color: rgb(248, 249, 250); text-decoration-thickness: initial; text-decoration-style: initial; text-decoration-color: initial; float: none; display: inline !important;&quot;&gt;&lt;font color=&quot;#ff0000&quot; style=&quot;font-size: 14px;&quot;&gt;&lt;b&gt;Part2：后置处理&lt;/b&gt;&lt;/font&gt;&lt;/span&gt;" style="text;whiteSpace=wrap;html=1;fontColor=#5C5C5C;" vertex="1" parent="1">
          <mxGeometry x="475" y="608" width="110" height="30" as="geometry" />
        </mxCell>
        <mxCell id="j28CpaSOzryhGSdTsk2z-11" style="edgeStyle=orthogonalEdgeStyle;rounded=0;orthogonalLoop=1;jettySize=auto;html=1;strokeColor=#333333;fontColor=#5C5C5C;fillColor=#21C0A5;entryX=0;entryY=0.5;entryDx=0;entryDy=0;" edge="1" parent="1" source="j28CpaSOzryhGSdTsk2z-9" target="j28CpaSOzryhGSdTsk2z-12">
          <mxGeometry relative="1" as="geometry">
            <mxPoint x="465" y="458" as="targetPoint" />
          </mxGeometry>
        </mxCell>
        <mxCell id="j28CpaSOzryhGSdTsk2z-9" value="&lt;font style=&quot;font-size: 10px;&quot;&gt;遍历所有的类&lt;/font&gt;" style="rounded=1;whiteSpace=wrap;html=1;strokeWidth=1;fillWeight=4;hachureGap=8;hachureAngle=45;fillColor=#fff2cc;sketch=1;strokeColor=#d6b656;" vertex="1" parent="1">
          <mxGeometry x="350" y="438" width="140" height="40" as="geometry" />
        </mxCell>
        <mxCell id="j28CpaSOzryhGSdTsk2z-20" style="edgeStyle=orthogonalEdgeStyle;rounded=0;orthogonalLoop=1;jettySize=auto;html=1;entryX=0.5;entryY=0;entryDx=0;entryDy=0;strokeColor=#333333;fontSize=10;fontColor=#5C5C5C;fillColor=#21C0A5;" edge="1" parent="1" source="j28CpaSOzryhGSdTsk2z-12" target="j28CpaSOzryhGSdTsk2z-13">
          <mxGeometry relative="1" as="geometry" />
        </mxCell>
        <mxCell id="j28CpaSOzryhGSdTsk2z-21" value="Y" style="edgeLabel;html=1;align=center;verticalAlign=middle;resizable=0;points=[];fontSize=10;fontColor=#5C5C5C;" vertex="1" connectable="0" parent="j28CpaSOzryhGSdTsk2z-20">
          <mxGeometry x="-0.6066" y="-1" relative="1" as="geometry">
            <mxPoint y="5" as="offset" />
          </mxGeometry>
        </mxCell>
        <mxCell id="j28CpaSOzryhGSdTsk2z-12" value="切面？" style="rhombus;whiteSpace=wrap;html=1;strokeWidth=1;fillWeight=-1;hachureGap=8;fillStyle=cross-hatch;fillColor=#d5e8d4;sketch=1;strokeColor=#82b366;" vertex="1" parent="1">
          <mxGeometry x="569.37" y="433" width="101.25" height="50" as="geometry" />
        </mxCell>
        <mxCell id="j28CpaSOzryhGSdTsk2z-22" style="edgeStyle=orthogonalEdgeStyle;rounded=0;orthogonalLoop=1;jettySize=auto;html=1;entryX=1;entryY=0.5;entryDx=0;entryDy=0;strokeColor=#333333;fontSize=10;fontColor=#5C5C5C;fillColor=#21C0A5;" edge="1" parent="1" source="j28CpaSOzryhGSdTsk2z-13" target="j28CpaSOzryhGSdTsk2z-15">
          <mxGeometry relative="1" as="geometry" />
        </mxCell>
        <mxCell id="j28CpaSOzryhGSdTsk2z-13" value="获取切面列表" style="rounded=1;whiteSpace=wrap;html=1;strokeWidth=1;fillWeight=4;hachureGap=8;hachureAngle=45;fillColor=#fff2cc;sketch=1;strokeColor=#d6b656;" vertex="1" parent="1">
          <mxGeometry x="566.25" y="518" width="107.5" height="40" as="geometry" />
        </mxCell>
        <mxCell id="j28CpaSOzryhGSdTsk2z-19" style="edgeStyle=orthogonalEdgeStyle;rounded=0;orthogonalLoop=1;jettySize=auto;html=1;entryX=0;entryY=0.5;entryDx=0;entryDy=0;strokeColor=#333333;fontSize=10;fontColor=#5C5C5C;fillColor=#21C0A5;exitX=0;exitY=0.5;exitDx=0;exitDy=0;" edge="1" parent="1" source="j28CpaSOzryhGSdTsk2z-15" target="j28CpaSOzryhGSdTsk2z-18">
          <mxGeometry relative="1" as="geometry" />
        </mxCell>
        <mxCell id="j28CpaSOzryhGSdTsk2z-15" value="缓存到&amp;nbsp;&lt;span style=&quot;color: rgb(1, 1, 1); font-family: Optima-Regular, Optima, PingFangSC-Regular, PingFangTC-Regular, &amp;quot;PingFang SC&amp;quot;, Cambria, Cochin, Georgia, Times, &amp;quot;Times New Roman&amp;quot;, serif; font-size: 14px; text-align: left;&quot;&gt;advisorsCache&lt;/span&gt;" style="rounded=1;whiteSpace=wrap;html=1;strokeWidth=1;fillWeight=4;hachureGap=8;hachureAngle=45;fillColor=#fff2cc;sketch=1;strokeColor=#d6b656;" vertex="1" parent="1">
          <mxGeometry x="350" y="518" width="140" height="40" as="geometry" />
        </mxCell>
        <mxCell id="j28CpaSOzryhGSdTsk2z-18" value="从缓存获取所有切面" style="rounded=1;whiteSpace=wrap;html=1;strokeWidth=1;fillWeight=4;hachureGap=8;hachureAngle=45;fillColor=#fff2cc;sketch=1;strokeColor=#d6b656;gradientColor=none;" vertex="1" parent="1">
          <mxGeometry x="350" y="638" width="140" height="40" as="geometry" />
        </mxCell>
        <mxCell id="j28CpaSOzryhGSdTsk2z-23" value="获取 louzai 的所有方法" style="rounded=1;whiteSpace=wrap;html=1;strokeWidth=1;fillWeight=4;hachureGap=8;hachureAngle=45;fillColor=#fff2cc;sketch=1;strokeColor=#d6b656;gradientColor=none;" vertex="1" parent="1">
          <mxGeometry x="350" y="708" width="140" height="40" as="geometry" />
        </mxCell>
        <mxCell id="j28CpaSOzryhGSdTsk2z-24" value="" style="shape=curlyBracket;whiteSpace=wrap;html=1;rounded=1;flipH=1;labelBackgroundColor=none;strokeColor=#333333;strokeWidth=1;fontSize=10;fontColor=#5C5C5C;fillColor=none;" vertex="1" parent="1">
          <mxGeometry x="500" y="658" width="34" height="80" as="geometry" />
        </mxCell>
        <mxCell id="j28CpaSOzryhGSdTsk2z-33" style="edgeStyle=orthogonalEdgeStyle;rounded=0;orthogonalLoop=1;jettySize=auto;html=1;entryX=0.5;entryY=0;entryDx=0;entryDy=0;strokeColor=#333333;fontSize=10;fontColor=#5C5C5C;fillColor=#21C0A5;" edge="1" parent="1" source="j28CpaSOzryhGSdTsk2z-25" target="j28CpaSOzryhGSdTsk2z-31">
          <mxGeometry relative="1" as="geometry" />
        </mxCell>
        <mxCell id="j28CpaSOzryhGSdTsk2z-25" value="louzai 的切面方法列表" style="rounded=1;whiteSpace=wrap;html=1;strokeWidth=1;fillWeight=4;hachureGap=8;hachureAngle=45;fillColor=#fff2cc;sketch=1;strokeColor=#d6b656;gradientColor=none;" vertex="1" parent="1">
          <mxGeometry x="540" y="678" width="140" height="40" as="geometry" />
        </mxCell>
        <mxCell id="j28CpaSOzryhGSdTsk2z-26" value="&lt;span style=&quot;color: rgb(0, 0, 0); font-family: Helvetica; font-size: 12px; font-style: normal; font-variant-ligatures: normal; font-variant-caps: normal; font-weight: 400; letter-spacing: normal; orphans: 2; text-align: center; text-indent: 0px; text-transform: none; widows: 2; word-spacing: 0px; -webkit-text-stroke-width: 0px; background-color: rgb(248, 249, 250); text-decoration-thickness: initial; text-decoration-style: initial; text-decoration-color: initial; float: none; display: inline !important;&quot;&gt;匹&lt;br&gt;配&lt;/span&gt;" style="text;whiteSpace=wrap;html=1;fontSize=10;fontColor=#5C5C5C;" vertex="1" parent="1">
          <mxGeometry x="500" y="678" width="10" height="30" as="geometry" />
        </mxCell>
        <mxCell id="j28CpaSOzryhGSdTsk2z-34" style="edgeStyle=orthogonalEdgeStyle;rounded=0;orthogonalLoop=1;jettySize=auto;html=1;entryX=0.5;entryY=0;entryDx=0;entryDy=0;strokeColor=#333333;fontSize=10;fontColor=#5C5C5C;fillColor=#21C0A5;" edge="1" parent="1" source="j28CpaSOzryhGSdTsk2z-31" target="j28CpaSOzryhGSdTsk2z-37">
          <mxGeometry relative="1" as="geometry">
            <mxPoint x="610" y="868" as="targetPoint" />
          </mxGeometry>
        </mxCell>
        <mxCell id="j28CpaSOzryhGSdTsk2z-31" value="" style="rounded=1;whiteSpace=wrap;html=1;strokeColor=default;fontColor=#5C5C5C;fillColor=none;dashed=1;dashPattern=1 1;" vertex="1" parent="1">
          <mxGeometry x="515" y="770.5" width="190" height="55" as="geometry" />
        </mxCell>
        <mxCell id="j28CpaSOzryhGSdTsk2z-29" value="Cglib" style="rounded=1;whiteSpace=wrap;html=1;strokeWidth=1;fillWeight=4;hachureGap=8;hachureAngle=45;fillColor=#dae8fc;sketch=1;strokeColor=#6c8ebf;" vertex="1" parent="1">
          <mxGeometry x="534" y="778" width="60" height="40" as="geometry" />
        </mxCell>
        <mxCell id="j28CpaSOzryhGSdTsk2z-30" value="SDK" style="rounded=1;whiteSpace=wrap;html=1;strokeWidth=1;fillWeight=4;hachureGap=8;hachureAngle=45;fillColor=#dae8fc;sketch=1;strokeColor=#6c8ebf;" vertex="1" parent="1">
          <mxGeometry x="624" y="778" width="60" height="40" as="geometry" />
        </mxCell>
        <mxCell id="j28CpaSOzryhGSdTsk2z-36" value="&lt;span style=&quot;color: rgb(0, 0, 0); font-family: Helvetica; font-size: 12px; font-style: normal; font-variant-ligatures: normal; font-variant-caps: normal; font-weight: 400; letter-spacing: normal; orphans: 2; text-align: center; text-indent: 0px; text-transform: none; widows: 2; word-spacing: 0px; -webkit-text-stroke-width: 0px; background-color: rgb(248, 249, 250); text-decoration-thickness: initial; text-decoration-style: initial; text-decoration-color: initial; float: none; display: inline !important;&quot;&gt;入口&lt;/span&gt;" style="text;whiteSpace=wrap;html=1;fontSize=10;fontColor=#5C5C5C;" vertex="1" parent="1">
          <mxGeometry x="353" y="296" width="50" height="30" as="geometry" />
        </mxCell>
        <mxCell id="j28CpaSOzryhGSdTsk2z-37" value="&lt;span style=&quot;font-size: 12px;&quot;&gt;创建 AOP 代理对象&lt;/span&gt;" style="ellipse;whiteSpace=wrap;html=1;strokeWidth=1;fillWeight=2;hachureGap=8;fillColor=#fff2cc;fillStyle=dots;sketch=1;dashed=1;dashPattern=1 1;labelBackgroundColor=none;strokeColor=#d6b656;fontSize=10;" vertex="1" parent="1">
          <mxGeometry x="546.99" y="858" width="126" height="60" as="geometry" />
        </mxCell>
        <mxCell id="j28CpaSOzryhGSdTsk2z-58" style="edgeStyle=orthogonalEdgeStyle;rounded=0;orthogonalLoop=1;jettySize=auto;html=1;strokeColor=#333333;fontSize=14;fontColor=#FF0000;fillColor=#21C0A5;" edge="1" parent="1" source="j28CpaSOzryhGSdTsk2z-38" target="j28CpaSOzryhGSdTsk2z-42">
          <mxGeometry relative="1" as="geometry" />
        </mxCell>
        <mxCell id="j28CpaSOzryhGSdTsk2z-38" value="everyDay()" style="rounded=1;whiteSpace=wrap;html=1;strokeWidth=1;fillWeight=4;hachureGap=8;hachureAngle=45;fillColor=#ffe6cc;sketch=1;strokeColor=#d79b00;" vertex="1" parent="1">
          <mxGeometry x="465" y="1018.5" width="80" height="40" as="geometry" />
        </mxCell>
        <mxCell id="j28CpaSOzryhGSdTsk2z-57" style="edgeStyle=orthogonalEdgeStyle;rounded=0;orthogonalLoop=1;jettySize=auto;html=1;strokeColor=#333333;fontSize=14;fontColor=#FF0000;fillColor=#21C0A5;" edge="1" parent="1" source="j28CpaSOzryhGSdTsk2z-39" target="j28CpaSOzryhGSdTsk2z-38">
          <mxGeometry relative="1" as="geometry" />
        </mxCell>
        <mxCell id="j28CpaSOzryhGSdTsk2z-39" value="拿到 AOP 代理对象&amp;nbsp;" style="rounded=1;whiteSpace=wrap;html=1;strokeWidth=1;fillWeight=4;hachureGap=8;hachureAngle=45;fillColor=#ffe6cc;sketch=1;strokeColor=#d79b00;" vertex="1" parent="1">
          <mxGeometry x="290" y="1018.5" width="136" height="40" as="geometry" />
        </mxCell>
        <mxCell id="j28CpaSOzryhGSdTsk2z-41" value="&lt;meta charset=&quot;utf-8&quot;&gt;&lt;span style=&quot;color: rgb(0, 0, 0); font-family: Helvetica; font-size: 12px; font-style: normal; font-variant-ligatures: normal; font-variant-caps: normal; font-weight: 400; letter-spacing: normal; orphans: 2; text-align: center; text-indent: 0px; text-transform: none; widows: 2; word-spacing: 0px; -webkit-text-stroke-width: 0px; background-color: rgb(248, 249, 250); text-decoration-thickness: initial; text-decoration-style: initial; text-decoration-color: initial; float: none; display: inline !important;&quot;&gt;执行&lt;/span&gt;" style="text;whiteSpace=wrap;html=1;fontSize=14;fontColor=#FF0000;" vertex="1" parent="1">
          <mxGeometry x="340" y="982" width="40" height="30" as="geometry" />
        </mxCell>
        <mxCell id="j28CpaSOzryhGSdTsk2z-47" style="edgeStyle=orthogonalEdgeStyle;rounded=0;orthogonalLoop=1;jettySize=auto;html=1;strokeColor=#d6b656;fontSize=14;fontColor=#FF0000;fillColor=#fff2cc;" edge="1" parent="1" source="j28CpaSOzryhGSdTsk2z-43" target="j28CpaSOzryhGSdTsk2z-44">
          <mxGeometry relative="1" as="geometry" />
        </mxCell>
        <mxCell id="j28CpaSOzryhGSdTsk2z-43" value="执行 myBefore()&amp;nbsp;" style="rounded=1;whiteSpace=wrap;html=1;strokeWidth=1;fillWeight=4;hachureGap=8;hachureAngle=45;fillColor=#fff2cc;sketch=1;strokeColor=#d6b656;" vertex="1" parent="1">
          <mxGeometry x="305" y="1159" width="110" height="40" as="geometry" />
        </mxCell>
        <mxCell id="j28CpaSOzryhGSdTsk2z-48" style="edgeStyle=orthogonalEdgeStyle;rounded=0;orthogonalLoop=1;jettySize=auto;html=1;strokeColor=#d6b656;fontSize=14;fontColor=#FF0000;fillColor=#fff2cc;" edge="1" parent="1" source="j28CpaSOzryhGSdTsk2z-44" target="j28CpaSOzryhGSdTsk2z-45">
          <mxGeometry relative="1" as="geometry" />
        </mxCell>
        <mxCell id="j28CpaSOzryhGSdTsk2z-44" value="执行 everyDay()&amp;nbsp;" style="rounded=1;whiteSpace=wrap;html=1;strokeWidth=1;fillWeight=4;hachureGap=8;hachureAngle=45;fillColor=#fff2cc;sketch=1;strokeColor=#d6b656;" vertex="1" parent="1">
          <mxGeometry x="438" y="1159" width="106" height="40" as="geometry" />
        </mxCell>
        <mxCell id="j28CpaSOzryhGSdTsk2z-45" value="执行 myAfterReturning()&amp;nbsp;" style="rounded=1;whiteSpace=wrap;html=1;strokeWidth=1;fillWeight=4;hachureGap=8;hachureAngle=45;fillColor=#fff2cc;sketch=1;strokeColor=#d6b656;" vertex="1" parent="1">
          <mxGeometry x="568" y="1159" width="140" height="40" as="geometry" />
        </mxCell>
        <mxCell id="j28CpaSOzryhGSdTsk2z-49" value="&lt;div style=&quot;text-align: center;&quot;&gt;&lt;span style=&quot;background-color: initial;&quot;&gt;&lt;b&gt;Part3：责任链 + 递归&lt;/b&gt;&lt;/span&gt;&lt;/div&gt;" style="text;whiteSpace=wrap;html=1;fontSize=14;fontColor=#FF0000;" vertex="1" parent="1">
          <mxGeometry x="442" y="1114" width="165" height="40" as="geometry" />
        </mxCell>
      </root>
    </mxGraphModel>
  </diagram>
</mxfile>
